<svg xmlns="http://www.w3.org/2000/svg" width="16" height="16" viewBox="0 0 16 16">
  <path fill-rule="evenodd" d="M8 .5a7.5 7.5 0 0 0-2.368 14.603c.372.068.509-.161.509-.358v-1.239c-2.078.452-2.517-.909-2.517-.909-.34-.864-.829-1.095-.829-1.095-.677-.462.051-.452.051-.452.749.052 1.144.771 1.144.771.665 1.14 1.743.81 2.167.619.068-.482.258-.81.469-.995-1.64-.187-3.366-.82-3.366-3.655 0-.81.291-1.475.771-1.995 0-.482-.273-1.839.462-3.046 0 0 1.001-.322 3.276 1.177.948-.263 1.961-.394 2.965-.399.998.005 2.014.136 2.965.399 2.274-1.5 3.274-1.177 3.274-1.177.736 1.207.462 2.564.462 3.046 0 1.842-1.121 3.465-3.481 3.643.272.226.513.677.513 1.367v2.027c0 .198.134.429.513.358A7.5 7.5 0 0 0 8 .5z"/>
  <path fill="#FFFFFF" fill-rule="evenodd" d="M8 .5a7.5 7.5 0 0 0-2.368 14.603c.372.068.509-.161.509-.358v-1.239c-2.078.452-2.517-.909-2.517-.909-.34-.864-.829-1.095-.829-1.095-.677-.462.051-.452.051-.452.749.052 1.144.771 1.144.771.665 1.14 1.743.81 2.167.619.068-.482.258-.81.469-.995-1.64-.187-3.366-.82-3.366-3.655 0-.81.291-1.475.771-1.995 0-.482-.273-1.839.462-3.046 0 0 1.001-.322 3.276 1.177.948-.263 1.961-.394 2.965-.399.998.005 2.014.136 2.965.399 2.274-1.5 3.274-1.177 3.274-1.177.736 1.207.462 2.564.462 3.046 0 1.842-1.121 3.465-3.481 3.643.272.226.513.677.513 1.367v2.027c0 .198.134.429.513.358A7.5 7.5 0 0 0 8 .5z"/>
</svg>