<svg xmlns="http://www.w3.org/2000/svg" viewBox="0 0 841.9 595.3"><g fill="#61DAFB"><path d="M666.3 296.5c0-32.5-40.7-63.3-103.1-82.4 14.4-63.6 8-114.2-20.2-130.4-6.5-3.8-14.1-5.6-22.4-5.6v22.3c4.6 0 8.3.9 11.4 2.6 13.6 7.8 19.5 37.5 14.9 75.7-1.1 9.4-2.9 19.3-5.1 29.4-19.6-4.8-41-8.5-63.5-10.9-13.5-18.5-27.5-35.3-41.6-50 32.6-30.3 63.2-46.9 84-46.9V78c-27.5 0-63.5 19.6-99.9 53.6-36.4-33.8-72.4-53.2-99.9-53.2v22.3c20.7 0 51.4 16.5 84 46.6-14 14.7-28 31.4-41.3 49.9-22.6 2.4-44 6.1-63.6 11-2.3-10-4-19.7-5.2-29-4.7-38.2 1.1-67.9 14.6-75.8 3-1.8 6.9-2.6 11.5-2.6V78.5c-8.4 0-16 1.8-22.6 5.6-28.1 16.2-34.4 66.7-19.9 130.1-62.2 19.2-102.7 49.9-102.7 82.3 0 32.5 40.7 63.3 103.1 82.4-14.4 63.6-8 114.2 20.2 130.4 6.5 3.8 14.1 5.6 22.5 5.6 27.5 0 63.5-19.6 99.9-53.6 36.4 33.8 72.4 53.2 99.9 53.2 8.4 0 16-1.8 22.6-5.6 28.1-16.2 34.4-66.7 19.9-130.1 62-19.1 102.5-49.9 102.5-82.3zm-130.2-66.7c-3.7 12.9-8.3 26.2-13.5 39.5-4.1-8-8.4-16-13.1-24-4.6-8-9.5-15.8-14.4-23.4 14.2 2.1 27.2 4.3 39.2 2.3-6.1 4.6-12.3 6.8-18.6zM497.9 459.8c-26.1 0-58.5-16.8-92.5-44.7-10.9-9-21.8-18.5-32.5-28.3l28.3-31.3c9.3 8.4 18.9 16.4 28.5 24.1 31.5 26.1 63.4 40.2 85.5 40.2 22.5 0 54-14.5 85.5-40.5 9.6-7.7 19.2-15.7 28.5-24.1l28.3 31.3c-10.8 9.8-21.6 19.3-32.5 28.3-34 27.9-66.4 44.7-92.5 44.7zm-87-78.8c13.2 11 27 21.9 40.8 32.6-21.7 18.1-50.8 28-81.1 28-30.3 0-59.4-9.9-81.1-28-13.8-10.7-27.6-21.6-40.8-32.6-40.2-33.5-62.1-64.6-62.1-85.9 0-21.1 21.9-52 57.4-84.8 34.1 31.4 70.4 51.2 98.9 57.9v74.4c-7.3-1.3-14.7-2-22.3-2-16.3 0-33 2.5-50.2 7.5-7.5 2.1-14.9 4.5-22.2 7.1v-74.1c28.6-6.6 64.9-26.3 99-57.7 35.6 32.7 57.5 63.6 57.5 84.7 0 21.2-21.9 52.3-62.1 85.8zm287.2-185.3c-26.1 0-58.5-16.8-92.5-44.7-10.9-9-21.8-18.5-32.5-28.3l28.3-31.3c9.3 8.4 18.9 16.4 28.5 24.1 31.5 26.1 63.4 40.2 85.5 40.2 22.5 0 54-14.5 85.5-40.5 9.6-7.7 19.2-15.7 28.5-24.1l28.3 31.3c-10.8 9.8-21.6 19.3-32.5 28.3-34 27.9-66.4 44.7-92.5 44.7zm-87-78.8c13.2 11 27"/><circle cx="420.9" cy="296.5" r="45.7"/><path d="M520.5 78.1z"/></g></svg>